<svg width="34" height="34" viewBox="0 0 34 34" fill="none" xmlns="http://www.w3.org/2000/svg">
<path d="M2.83337 17C2.83337 11.6578 2.83337 8.98594 4.49371 7.32702C6.15404 5.6681 8.82446 5.66669 14.1667 5.66669H19.8334C25.1756 5.66669 27.8475 5.66669 29.5064 7.32702C31.1653 8.98735 31.1667 11.6578 31.1667 17V19.8334C31.1667 25.1756 31.1667 27.8474 29.5064 29.5064C27.846 31.1653 25.1756 31.1667 19.8334 31.1667H14.1667C8.82446 31.1667 6.15262 31.1667 4.49371 29.5064C2.83479 27.846 2.83337 25.1756 2.83337 19.8334V17Z" stroke="black" stroke-width="1.5"/>
<path opacity="0.5" d="M9.91675 5.66669V3.54169M24.0834 5.66669V3.54169M3.54175 12.75H30.4584" stroke="black" stroke-width="1.5" stroke-linecap="round"/>
<path d="M25.5 24.0833C25.5 24.4591 25.3507 24.8194 25.0851 25.0851C24.8194 25.3507 24.4591 25.5 24.0833 25.5C23.7076 25.5 23.3473 25.3507 23.0816 25.0851C22.8159 24.8194 22.6667 24.4591 22.6667 24.0833C22.6667 23.7076 22.8159 23.3473 23.0816 23.0816C23.3473 22.8159 23.7076 22.6667 24.0833 22.6667C24.4591 22.6667 24.8194 22.8159 25.0851 23.0816C25.3507 23.3473 25.5 23.7076 25.5 24.0833ZM25.5 18.4167C25.5 18.7924 25.3507 19.1527 25.0851 19.4184C24.8194 19.6841 24.4591 19.8333 24.0833 19.8333C23.7076 19.8333 23.3473 19.6841 23.0816 19.4184C22.8159 19.1527 22.6667 18.7924 22.6667 18.4167C22.6667 18.0409 22.8159 17.6806 23.0816 17.4149C23.3473 17.1493 23.7076 17 24.0833 17C24.4591 17 24.8194 17.1493 25.0851 17.4149C25.3507 17.6806 25.5 18.0409 25.5 18.4167ZM18.4167 24.0833C18.4167 24.4591 18.2674 24.8194 18.0017 25.0851C17.7361 25.3507 17.3757 25.5 17 25.5C16.6243 25.5 16.2639 25.3507 15.9983 25.0851C15.7326 24.8194 15.5833 24.4591 15.5833 24.0833C15.5833 23.7076 15.7326 23.3473 15.9983 23.0816C16.2639 22.8159 16.6243 22.6667 17 22.6667C17.3757 22.6667 17.7361 22.8159 18.0017 23.0816C18.2674 23.3473 18.4167 23.7076 18.4167 24.0833ZM18.4167 18.4167C18.4167 18.7924 18.2674 19.1527 18.0017 19.4184C17.7361 19.6841 17.3757 19.8333 17 19.8333C16.6243 19.8333 16.2639 19.6841 15.9983 19.4184C15.7326 19.1527 15.5833 18.7924 15.5833 18.4167C15.5833 18.0409 15.7326 17.6806 15.9983 17.4149C16.2639 17.1493 16.6243 17 17 17C17.3757 17 17.7361 17.1493 18.0017 17.4149C18.2674 17.6806 18.4167 18.0409 18.4167 18.4167ZM11.3333 24.0833C11.3333 24.4591 11.1841 24.8194 10.9184 25.0851C10.6527 25.3507 10.2924 25.5 9.91667 25.5C9.54094 25.5 9.18061 25.3507 8.91493 25.0851C8.64926 24.8194 8.5 24.4591 8.5 24.0833C8.5 23.7076 8.64926 23.3473 8.91493 23.0816C9.18061 22.8159 9.54094 22.6667 9.91667 22.6667C10.2924 22.6667 10.6527 22.8159 10.9184 23.0816C11.1841 23.3473 11.3333 23.7076 11.3333 24.0833ZM11.3333 18.4167C11.3333 18.7924 11.1841 19.1527 10.9184 19.4184C10.6527 19.6841 10.2924 19.8333 9.91667 19.8333C9.54094 19.8333 9.18061 19.6841 8.91493 19.4184C8.64926 19.1527 8.5 18.7924 8.5 18.4167C8.5 18.0409 8.64926 17.6806 8.91493 17.4149C9.18061 17.1493 9.54094 17 9.91667 17C10.2924 17 10.6527 17.1493 10.9184 17.4149C11.1841 17.6806 11.3333 18.0409 11.3333 18.4167Z" fill="black"/>
</svg>
