<svg width="22" height="22" viewBox="0 0 22 22" fill="none" xmlns="http://www.w3.org/2000/svg">
<path fill-rule="evenodd" clip-rule="evenodd" d="M5.99998 0.75C6.19889 0.75 6.38965 0.829018 6.53031 0.96967C6.67096 1.11032 6.74998 1.30109 6.74998 1.5V2.263C7.41198 2.25 8.14098 2.25 8.94298 2.25H13.056C13.859 2.25 14.588 2.25 15.25 2.263V1.5C15.25 1.30109 15.329 1.11032 15.4696 0.96967C15.6103 0.829018 15.8011 0.75 16 0.75C16.1989 0.75 16.3897 0.829018 16.5303 0.96967C16.671 1.11032 16.75 1.30109 16.75 1.5V2.327C17.01 2.347 17.2563 2.37233 17.489 2.403C18.661 2.561 19.61 2.893 20.359 3.641C21.107 4.39 21.439 5.339 21.597 6.511C21.75 7.651 21.75 9.106 21.75 10.944V13.056C21.75 14.894 21.75 16.35 21.597 17.489C21.439 18.661 21.107 19.61 20.359 20.359C19.61 21.107 18.661 21.439 17.489 21.597C16.349 21.75 14.894 21.75 13.056 21.75H8.94498C7.10698 21.75 5.65098 21.75 4.51198 21.597C3.33998 21.439 2.39098 21.107 1.64198 20.359C0.893976 19.61 0.561977 18.661 0.403977 17.489C0.250977 16.349 0.250977 14.894 0.250977 13.056V10.944C0.250977 9.106 0.250977 7.65 0.403977 6.511C0.561977 5.339 0.893976 4.39 1.64198 3.641C2.39098 2.893 3.33998 2.561 4.51198 2.403C4.74531 2.37233 4.99164 2.347 5.25098 2.327V1.5C5.25098 1.30126 5.32986 1.11065 5.47029 0.970023C5.61073 0.8294 5.80124 0.750265 5.99998 0.75ZM4.70998 3.89C3.70498 4.025 3.12498 4.279 2.70198 4.702C2.27898 5.125 2.02498 5.705 1.88998 6.71C1.86731 6.88 1.84798 7.05967 1.83198 7.249H20.168C20.152 7.05967 20.1326 6.87967 20.11 6.709C19.975 5.704 19.721 5.124 19.298 4.701C18.875 4.278 18.295 4.024 17.289 3.889C16.262 3.751 14.907 3.749 13 3.749H8.99998C7.09298 3.749 5.73898 3.752 4.70998 3.89ZM1.74998 11C1.74998 10.146 1.74998 9.403 1.76298 8.75H20.237C20.25 9.403 20.25 10.146 20.25 11V13C20.25 14.907 20.248 16.262 20.11 17.29C19.975 18.295 19.721 18.875 19.298 19.298C18.875 19.721 18.295 19.975 17.289 20.11C16.262 20.248 14.907 20.25 13 20.25H8.99998C7.09298 20.25 5.73898 20.248 4.70998 20.11C3.70498 19.975 3.12498 19.721 2.70198 19.298C2.27898 18.875 2.02498 18.295 1.88998 17.289C1.75198 16.262 1.74998 14.907 1.74998 13V11Z" />
</svg>
