<svg width="34" height="34" viewBox="0 0 34 34" fill="none" xmlns="http://www.w3.org/2000/svg">
<path d="M4.07999 3.40002C2.58452 3.40002 1.35999 4.62456 1.35999 6.12002V27.88C1.35999 29.3755 2.58452 30.6 4.07999 30.6H29.92C31.4155 30.6 32.64 29.3755 32.64 27.88V6.12002C32.64 4.62456 31.4155 3.40002 29.92 3.40002H4.07999ZM4.07999 4.76002H29.92C30.6797 4.76002 31.28 5.36034 31.28 6.12002V27.88C31.28 28.6397 30.6797 29.24 29.92 29.24H4.07999C3.3203 29.24 2.71999 28.6397 2.71999 27.88V6.12002C2.71999 5.36034 3.3203 4.76002 4.07999 4.76002ZM4.63249 6.12002C4.30842 6.18112 4.07467 6.46799 4.07999 6.80002V27.2C4.07999 27.5746 4.38545 27.88 4.75999 27.88H29.24C29.2612 27.88 29.2825 27.88 29.3037 27.88C29.6544 27.8481 29.9226 27.5533 29.92 27.2V6.80002C29.92 6.42549 29.6145 6.12002 29.24 6.12002H4.75999C4.73874 6.12002 4.71749 6.12002 4.69624 6.12002C4.67499 6.12002 4.65374 6.12002 4.63249 6.12002ZM5.43999 7.48002H28.56V26.52H25.84V25.16H19.72V26.52H5.43999V7.48002ZM17 11.56C15.5045 11.56 14.28 12.7846 14.28 14.28C14.28 15.7755 15.5045 17 17 17C18.4955 17 19.72 15.7755 19.72 14.28C19.72 12.7846 18.4955 11.56 17 11.56ZM17 12.92C17.7597 12.92 18.36 13.5203 18.36 14.28C18.36 15.0397 17.7597 15.64 17 15.64C16.2403 15.64 15.64 15.0397 15.64 14.28C15.64 13.5203 16.2403 12.92 17 12.92ZM11.56 14.28C10.4417 14.28 9.51999 15.2017 9.51999 16.32C9.51999 17.4383 10.4417 18.36 11.56 18.36C12.6783 18.36 13.6 17.4383 13.6 16.32C13.6 15.2017 12.6783 14.28 11.56 14.28ZM22.44 14.28C21.3217 14.28 20.4 15.2017 20.4 16.32C20.4 17.4383 21.3217 18.36 22.44 18.36C23.5583 18.36 24.48 17.4383 24.48 16.32C24.48 15.2017 23.5583 14.28 22.44 14.28ZM11.56 15.64C11.9425 15.64 12.24 15.9375 12.24 16.32C12.24 16.7025 11.9425 17 11.56 17C11.1775 17 10.88 16.7025 10.88 16.32C10.88 15.9375 11.1775 15.64 11.56 15.64ZM22.44 15.64C22.8225 15.64 23.12 15.9375 23.12 16.32C23.12 16.7025 22.8225 17 22.44 17C22.0575 17 21.76 16.7025 21.76 16.32C21.76 15.9375 22.0575 15.64 22.44 15.64ZM17 17.68C15.1459 17.68 13.6558 18.538 12.9412 19.04C12.5322 18.9046 12.0673 18.8063 11.56 18.8063C9.7192 18.8063 8.39374 20.0175 8.39374 20.0175L8.15999 20.23V22.44H25.84V20.23L25.6062 20.0175C25.6062 20.0175 24.2808 18.8063 22.44 18.8063C21.9326 18.8063 21.4678 18.9046 21.0587 19.04C20.3442 18.538 18.854 17.68 17 17.68ZM17 19.04C18.777 19.04 20.0945 20.0308 20.4 20.2725V21.08H13.6V20.2725C13.9055 20.0308 15.223 19.04 17 19.04ZM11.56 20.1663C11.7964 20.1663 12.0195 20.2167 12.24 20.2725V21.08H9.51999V20.8888C9.79624 20.6842 10.5453 20.1663 11.56 20.1663ZM22.44 20.1663C23.4547 20.1663 24.2037 20.6842 24.48 20.8888V21.08H21.76V20.2725C21.9805 20.2167 22.2036 20.1663 22.44 20.1663Z" fill="black"/>
</svg>
