<svg width="32" height="28" viewBox="0 0 32 28" fill="none" xmlns="http://www.w3.org/2000/svg">
<path d="M3.07999 0.399994C1.58452 0.399994 0.359985 1.62452 0.359985 3.11999V24.88C0.359985 26.3755 1.58452 27.6 3.07999 27.6H28.92C30.4155 27.6 31.64 26.3755 31.64 24.88V3.11999C31.64 1.62452 30.4155 0.399994 28.92 0.399994H3.07999ZM3.07999 1.75999H28.92C29.6797 1.75999 30.28 2.36031 30.28 3.11999V24.88C30.28 25.6397 29.6797 26.24 28.92 26.24H3.07999C2.3203 26.24 1.71999 25.6397 1.71999 24.88V3.11999C1.71999 2.36031 2.3203 1.75999 3.07999 1.75999ZM3.63249 3.11999C3.30842 3.18109 3.07467 3.46796 3.07999 3.79999V24.2C3.07999 24.5745 3.38545 24.88 3.75999 24.88H28.24C28.2612 24.88 28.2825 24.88 28.3037 24.88C28.6544 24.8481 28.9226 24.5533 28.92 24.2V3.79999C28.92 3.42546 28.6145 3.11999 28.24 3.11999H3.75999C3.73874 3.11999 3.71749 3.11999 3.69624 3.11999C3.67499 3.11999 3.65374 3.11999 3.63249 3.11999ZM4.43999 4.47999H27.56V23.52H24.84V22.16H18.72V23.52H4.43999V4.47999ZM16 8.55999C14.5045 8.55999 13.28 9.78452 13.28 11.28C13.28 12.7755 14.5045 14 16 14C17.4955 14 18.72 12.7755 18.72 11.28C18.72 9.78452 17.4955 8.55999 16 8.55999ZM16 9.91999C16.7597 9.91999 17.36 10.5203 17.36 11.28C17.36 12.0397 16.7597 12.64 16 12.64C15.2403 12.64 14.64 12.0397 14.64 11.28C14.64 10.5203 15.2403 9.91999 16 9.91999ZM10.56 11.28C9.4417 11.28 8.51999 12.2017 8.51999 13.32C8.51999 14.4383 9.4417 15.36 10.56 15.36C11.6783 15.36 12.6 14.4383 12.6 13.32C12.6 12.2017 11.6783 11.28 10.56 11.28ZM21.44 11.28C20.3217 11.28 19.4 12.2017 19.4 13.32C19.4 14.4383 20.3217 15.36 21.44 15.36C22.5583 15.36 23.48 14.4383 23.48 13.32C23.48 12.2017 22.5583 11.28 21.44 11.28ZM10.56 12.64C10.9425 12.64 11.24 12.9375 11.24 13.32C11.24 13.7025 10.9425 14 10.56 14C10.1775 14 9.87999 13.7025 9.87999 13.32C9.87999 12.9375 10.1775 12.64 10.56 12.64ZM21.44 12.64C21.8225 12.64 22.12 12.9375 22.12 13.32C22.12 13.7025 21.8225 14 21.44 14C21.0575 14 20.76 13.7025 20.76 13.32C20.76 12.9375 21.0575 12.64 21.44 12.64ZM16 14.68C14.1459 14.68 12.6558 15.538 11.9412 16.04C11.5322 15.9045 11.0673 15.8062 10.56 15.8062C8.7192 15.8062 7.39374 17.0175 7.39374 17.0175L7.15999 17.23V19.44H24.84V17.23L24.6062 17.0175C24.6062 17.0175 23.2808 15.8062 21.44 15.8062C20.9326 15.8062 20.4678 15.9045 20.0587 16.04C19.3442 15.538 17.854 14.68 16 14.68ZM16 16.04C17.777 16.04 19.0945 17.0308 19.4 17.2725V18.08H12.6V17.2725C12.9055 17.0308 14.223 16.04 16 16.04ZM10.56 17.1662C10.7964 17.1662 11.0195 17.2167 11.24 17.2725V18.08H8.51999V17.8887C8.79624 17.6842 9.5453 17.1662 10.56 17.1662ZM21.44 17.1662C22.4547 17.1662 23.2037 17.6842 23.48 17.8887V18.08H20.76V17.2725C20.9805 17.2167 21.2036 17.1662 21.44 17.1662Z" />
</svg>
