<svg width="34" height="34" viewBox="0 0 34 34" fill="none" xmlns="http://www.w3.org/2000/svg">
<path d="M7.65005 14.1667C8.46227 14.1667 9.24522 14.3183 9.99888 14.6214C10.7526 14.9246 11.4354 15.3591 12.0474 15.9248L25.0311 28.3334H26.9167C27.3181 28.3334 27.6548 28.1974 27.9268 27.9254C28.1988 27.6534 28.3343 27.3171 28.3334 26.9167C28.3334 26.7278 28.3154 26.5271 28.2795 26.3146C28.2437 26.1021 28.1199 25.8896 27.9084 25.6771L21.4271 19.1959L18.9126 11.6167L14.5761 12.6905C14.1143 12.8171 13.6945 12.7283 13.3167 12.4242C12.9389 12.1201 12.7501 11.7357 12.7501 11.271V6.55211L11.7584 6.05628L6.33255 13.3238C6.23527 13.4569 6.15027 13.5929 6.07755 13.7318C6.00577 13.8716 5.94911 14.0165 5.90755 14.1667H7.65005ZM7.65005 15.5834H5.80272C5.85561 15.8761 5.94438 16.1477 6.06905 16.3979C6.19372 16.6482 6.37222 16.8782 6.60455 17.0879L18.1334 27.5896C18.3931 27.8493 18.6882 28.0382 19.0188 28.1563C19.3494 28.2743 19.6917 28.3334 20.0459 28.3334H22.9671L11.0812 16.9434C10.6251 16.4872 10.0976 16.1463 9.4988 15.9205C8.89908 15.6958 8.28283 15.5834 7.65005 15.5834ZM20.0459 29.75C19.5189 29.75 19.0136 29.6565 18.5301 29.4695C18.0484 29.2825 17.6083 29.0072 17.2097 28.6436L5.6993 18.1957C4.88613 17.4401 4.42808 16.524 4.32513 15.4474C4.22219 14.3707 4.49891 13.3871 5.1553 12.4964L10.6364 5.20061C10.8375 4.92956 11.102 4.75106 11.4297 4.66511C11.7574 4.57917 12.0738 4.61978 12.3789 4.78695L13.3989 5.28278C13.6586 5.415 13.8513 5.59208 13.9769 5.81403C14.1034 6.03503 14.1667 6.28106 14.1667 6.55211V11.3532L18.5584 10.217C18.922 10.1188 19.262 10.1618 19.5784 10.3459C19.8948 10.5301 20.1162 10.8012 20.2428 11.1591L22.654 18.4011L28.9199 24.667C29.2457 24.9938 29.4658 25.347 29.58 25.7267C29.6934 26.1064 29.75 26.503 29.75 26.9167C29.75 27.6977 29.4776 28.3655 28.9326 28.9199C28.3877 29.4733 27.7157 29.75 26.9167 29.75H20.0459Z" fill="black"/>
</svg>
