<svg width="24" height="24" viewBox="0 0 24 24" fill="none" xmlns="http://www.w3.org/2000/svg">
<path d="M16.25 23.2243L7.75002 20.2493L2.14285 22.4168C1.78019 22.5518 1.44349 22.5126 1.13277 22.2992C0.822048 22.0857 0.666687 21.7854 0.666687 21.3982V4.07234C0.666687 3.81923 0.728076 3.58831 0.850854 3.37959C0.973632 3.17087 1.15213 3.0259 1.38635 2.94467L7.75002 0.775757L16.25 3.75076L21.8572 1.58326C22.2199 1.4482 22.5565 1.4737 22.8673 1.65976C23.178 1.84581 23.3334 2.12348 23.3334 2.49276V20.0368C23.3334 20.3078 23.2583 20.543 23.1081 20.7423C22.9589 20.9425 22.7577 21.0832 22.5046 21.1644L16.25 23.2243ZM15.5417 21.4959V4.92092L8.45835 2.44884V19.0238L15.5417 21.4959ZM16.9584 21.4959L21.9167 19.8625V3.07501L16.9584 4.92234V21.4959ZM2.08335 20.925L7.04169 19.0238V2.44884L2.08335 4.13751V20.925Z" />
</svg>
