<svg width="30" height="30" viewBox="0 0 30 30" xmlns="http://www.w3.org/2000/svg">
<path d="M29 8.56261C29 7.89381 28.9129 7.24211 28.7496 6.62464C28.6064 6.08182 27.9376 5.95272 27.5424 6.34934L24.8622 9.02922C24.6069 9.28453 24.3037 9.48706 23.9701 9.62524C23.6365 9.76341 23.2789 9.83453 22.9178 9.83453C22.5567 9.83453 22.1991 9.76341 21.8655 9.62524C21.5318 9.48706 21.2287 9.28453 20.9733 9.02922C20.718 8.7739 20.5154 8.4708 20.3772 8.13721C20.239 7.80363 20.1679 7.44609 20.1679 7.08502C20.1679 6.72395 20.239 6.36642 20.3772 6.03283C20.5154 5.69925 20.718 5.39614 20.9733 5.14083L23.6536 2.4625C24.0502 2.06589 23.9211 1.39708 23.3782 1.25399C22.0473 0.900024 20.6449 0.916309 19.3225 1.30109C18.0001 1.68587 16.808 2.42452 15.8749 3.4373C14.9417 4.45007 14.3029 5.69848 14.0276 7.04773C13.7522 8.39698 13.8507 9.79581 14.3124 11.0932C14.4229 11.4042 14.3607 11.7526 14.1289 11.9844L1.46667 24.645C0.844444 25.2671 0.844444 26.2766 1.46667 26.8972L3.10311 28.5334C3.72533 29.1555 4.73178 29.1555 5.354 28.5334L18.0162 15.8728C18.2496 15.6395 18.598 15.5773 18.9076 15.6877C20.0484 16.0932 21.27 16.2189 22.4695 16.054C23.669 15.8891 24.8114 15.4386 25.8005 14.7403C26.7896 14.042 27.5965 13.1164 28.1533 12.0414C28.7101 10.9663 29.0004 9.77326 29 8.56261Z" stroke="none" stroke-width="1.5" stroke-linecap="round" stroke-linejoin="round"/>
</svg>
