<svg width="34" height="34" viewBox="0 0 34 34" fill="none" xmlns="http://www.w3.org/2000/svg">
<path fill-rule="evenodd" clip-rule="evenodd" d="M18.4166 4.24998C18.4166 3.87426 18.2674 3.51392 18.0017 3.24825C17.736 2.98257 17.3757 2.83331 16.9999 2.83331C16.6242 2.83331 16.2639 2.98257 15.9982 3.24825C15.7325 3.51392 15.5833 3.87426 15.5833 4.24998V5.31248H14.7942C13.2756 5.31238 11.814 5.89104 10.707 6.93065C9.60001 7.97026 8.93083 9.39267 8.83569 10.9083L8.52261 15.9148C8.40158 17.8234 7.76079 19.6625 6.66961 21.233C6.44384 21.5575 6.30589 21.9349 6.26918 22.3285C6.23247 22.7221 6.29824 23.1185 6.4601 23.4792C6.62196 23.8399 6.87441 24.1525 7.19288 24.3867C7.51135 24.6209 7.88501 24.7687 8.27753 24.8157L13.1041 25.3937V26.9166C13.1041 27.9499 13.5146 28.9408 14.2452 29.6714C14.9758 30.402 15.9667 30.8125 16.9999 30.8125C18.0332 30.8125 19.0241 30.402 19.7547 29.6714C20.4853 28.9408 20.8958 27.9499 20.8958 26.9166V25.3937L25.7224 24.8143C26.1146 24.7672 26.4881 24.6193 26.8063 24.3852C27.1246 24.1511 27.3769 23.8386 27.5387 23.4782C27.7006 23.1178 27.7664 22.7216 27.7299 22.3282C27.6934 21.9347 27.5557 21.5575 27.3303 21.233C26.2391 19.6625 25.5983 17.8234 25.4773 15.9148L25.1642 10.9097C25.0694 9.39384 24.4004 7.97107 23.2933 6.93116C22.1863 5.89126 20.7245 5.3124 19.2057 5.31248H18.4166V4.24998ZM14.7942 7.43748C13.8161 7.43736 12.8747 7.81002 12.1617 8.47959C11.4487 9.14916 11.0177 10.0653 10.9564 11.0415L10.6448 16.048C10.4991 18.344 9.728 20.5565 8.41494 22.4456C8.39861 22.4691 8.38862 22.4964 8.38595 22.5249C8.38328 22.5533 8.38803 22.582 8.39972 22.6081C8.41141 22.6342 8.42966 22.6568 8.45268 22.6738C8.4757 22.6908 8.50272 22.7015 8.53111 22.7049L13.8252 23.341C15.9346 23.5931 18.0653 23.5931 20.1747 23.341L25.4688 22.7049C25.4972 22.7015 25.5242 22.6908 25.5472 22.6738C25.5702 22.6568 25.5885 22.6342 25.6002 22.6081C25.6119 22.582 25.6166 22.5533 25.6139 22.5249C25.6113 22.4964 25.6013 22.4691 25.5849 22.4456C24.2724 20.5563 23.5018 18.3439 23.3565 16.048L23.0434 11.0415C22.9822 10.0653 22.5512 9.14916 21.8382 8.47959C21.1252 7.81002 20.1838 7.43736 19.2057 7.43748H14.7942ZM16.9999 28.6875C16.0224 28.6875 15.2291 27.8941 15.2291 26.9166V25.8541H18.7708V26.9166C18.7708 27.8941 17.9774 28.6875 16.9999 28.6875Z" fill="black"/>
</svg>
