<?xml version='1.0' encoding='utf-8'?>
<svg xmlns="http://www.w3.org/2000/svg" width="51" height="38" viewBox="0 0 51 38" id="east_womenToilet">
<path d="M50 37.75V0.25H12.75V14.7031H0.75V37.75H50Z" />
<path d="M34.4199 13.375C35.628 13.375 36.6074 12.3956 36.6074 11.1875C36.6074 9.97938 35.628 9 34.4199 9C33.2118 9 32.2324 9.97938 32.2324 11.1875C32.2324 12.3956 33.2118 13.375 34.4199 13.375Z" fill="black"/>
<path d="M39.8449 19.8554L39.4414 18.5112V18.5069L38.564 15.5827H38.5621L38.464 15.2526C38.3564 14.8907 38.1347 14.5732 37.8321 14.3474C37.5294 14.1216 37.1619 13.9996 36.7843 13.9995H32.0968C31.7192 13.9994 31.3516 14.1213 31.0489 14.3472C30.7462 14.573 30.5246 14.8906 30.4171 15.2526L30.3191 15.5827H30.3168L29.4394 18.5069V18.5112L29.0343 19.8554C28.9125 20.2612 29.1242 20.7015 29.5253 20.8374C29.6247 20.8713 29.7299 20.8847 29.8346 20.877C29.9393 20.8693 30.0414 20.8405 30.1347 20.7925C30.2281 20.7444 30.3108 20.678 30.3779 20.5973C30.445 20.5166 30.4951 20.4231 30.5253 20.3226L31.5246 16.9925L31.6093 16.7101C31.6341 16.641 31.6823 16.5829 31.7456 16.5459C31.8089 16.5088 31.8832 16.4952 31.9555 16.5074C32.0278 16.5196 32.0935 16.5568 32.1411 16.6126C32.1887 16.6684 32.2152 16.7391 32.216 16.8124C32.2159 16.8335 32.2137 16.8546 32.2093 16.8753L30.5011 22.5702C30.4731 22.6636 30.4673 22.7621 30.4842 22.8581C30.501 22.954 30.5401 23.0447 30.5982 23.1229C30.6564 23.2011 30.732 23.2646 30.819 23.3083C30.9061 23.3521 31.0021 23.3749 31.0996 23.3749H32.2324V27.855C32.2324 28.498 32.6437 28.9999 33.1699 28.9999C33.6961 28.9999 34.1074 28.498 34.1074 27.855V23.3749H34.7324V27.855C34.7324 28.498 35.1437 28.9999 35.6699 28.9999C36.1961 28.9999 36.6074 28.498 36.6074 27.855V23.3749H37.7793C37.8767 23.375 37.9728 23.3522 38.0599 23.3085C38.147 23.2647 38.2227 23.2012 38.2809 23.1231C38.3391 23.0449 38.3781 22.9542 38.395 22.8582C38.4119 22.7622 38.4061 22.6636 38.3781 22.5702L36.6695 16.8745C36.6652 16.8541 36.6631 16.8333 36.6632 16.8124C36.6636 16.7389 36.69 16.6678 36.7376 16.6118C36.7852 16.5557 36.8511 16.5183 36.9236 16.506C36.9961 16.4937 37.0706 16.5074 37.134 16.5447C37.1975 16.5819 37.2457 16.6404 37.2703 16.7097L37.355 16.9921L38.3539 20.3222C38.3842 20.4226 38.4344 20.5158 38.5016 20.5964C38.5687 20.677 38.6514 20.7432 38.7447 20.7912C38.838 20.8391 38.9399 20.8677 39.0445 20.8754C39.1491 20.8831 39.2542 20.8697 39.3535 20.8359C39.7547 20.7015 39.9664 20.2612 39.8449 19.8554Z" fill="black"/>
</svg>