<?xml version='1.0' encoding='utf-8'?>
<svg xmlns="http://www.w3.org/2000/svg" width="24" height="25" viewBox="0 0 24 25" id="east_multipurposeToilet">
<path d="M1 24H23.5V1H1V24Z" />
<path d="M9.3311 4.61998C9.54978 4.40179 9.81346 4.23397 10.1037 4.12822C10.394 4.02248 10.7038 3.98137 11.0116 4.00776C11.3194 4.03415 11.6177 4.1274 11.8857 4.28101C12.1537 4.43462 12.385 4.64487 12.5634 4.8971C12.7417 5.14933 12.8629 5.43745 12.9183 5.74135C12.9738 6.04524 12.9623 6.35758 12.8846 6.65656C12.8069 6.95554 12.6648 7.23396 12.4684 7.47237C12.2719 7.71078 12.0258 7.90343 11.7472 8.03688L12.3145 13.1437C12.3208 13.2012 12.349 13.2541 12.3932 13.2914C12.4374 13.3287 12.4943 13.3476 12.552 13.3442L17.107 13.0841C17.3158 13.0722 17.5249 13.1018 17.7221 13.1713C17.9194 13.2408 18.1009 13.3487 18.2562 13.4888C18.4114 13.6289 18.5373 13.7985 18.6266 13.9876C18.7158 14.1768 18.7667 14.3818 18.7761 14.5907L18.8755 16.7891C18.878 16.8473 18.903 16.9022 18.945 16.9424C18.9871 16.9826 19.0431 17.0051 19.1013 17.005H19.3226C19.5022 17.005 19.6745 17.0764 19.8016 17.2034C19.9286 17.3305 20 17.5028 20 17.6824C20 17.8621 19.9286 18.0344 19.8016 18.1614C19.6745 18.2885 19.5022 18.3598 19.3226 18.3598H19.1022C18.6954 18.36 18.3041 18.2034 18.0099 17.9224C17.7156 17.6415 17.541 17.2579 17.5225 16.8515L17.4231 14.6521C17.4218 14.6222 17.4146 14.5929 17.4019 14.5658C17.3892 14.5387 17.3712 14.5144 17.349 14.4943C17.3269 14.4742 17.3009 14.4587 17.2727 14.4488C17.2444 14.4388 17.2145 14.4345 17.1846 14.4362L12.6288 14.6973C12.2247 14.7203 11.8273 14.5875 11.5182 14.3262C11.2092 14.0649 11.0122 13.695 10.9677 13.2928L10.4014 8.19856C10.0264 8.12089 9.67939 7.94321 9.39715 7.68435C9.11491 7.42549 8.90797 7.09509 8.79826 6.72817C8.68854 6.36125 8.68014 5.97148 8.77395 5.60017C8.86776 5.22887 9.06027 4.89076 9.3311 4.61998ZM13 10.4566C13 10.277 13.0714 10.1047 13.1984 9.97762C13.3255 9.85058 13.4978 9.7792 13.6774 9.7792H16.3871C16.5668 9.7792 16.7391 9.85058 16.8661 9.97762C16.9931 10.1047 17.0645 10.277 17.0645 10.4566C17.0645 10.6363 16.9931 10.8086 16.8661 10.9356C16.7391 11.0627 16.5668 11.134 16.3871 11.134H13.6774C13.4978 11.134 13.3255 11.0627 13.1984 10.9356C13.0714 10.8086 13 10.6363 13 10.4566ZM9.82245 10.5668C9.8596 10.6478 9.88042 10.7352 9.88372 10.8242C9.88703 10.9132 9.87275 11.002 9.84171 11.0855C9.81067 11.1689 9.76347 11.2455 9.70282 11.3107C9.64218 11.3759 9.56926 11.4285 9.48826 11.4655C8.92719 11.723 8.44042 12.1183 8.07327 12.6146C7.70612 13.1109 7.47054 13.692 7.38847 14.3039C7.3064 14.9157 7.3805 15.5384 7.60389 16.1139C7.82727 16.6894 8.19266 17.199 8.66604 17.5952C9.13941 17.9915 9.70536 18.2615 10.3112 18.3801C10.917 18.4987 11.543 18.4621 12.1309 18.2736C12.7187 18.0851 13.2493 17.751 13.6732 17.3022C14.0972 16.8534 14.4006 16.3047 14.5554 15.7071C14.5775 15.6209 14.6165 15.5399 14.6699 15.4688C14.7234 15.3977 14.7904 15.3378 14.867 15.2925C14.9436 15.2473 15.0284 15.2176 15.1165 15.2051C15.2046 15.1926 15.2943 15.1976 15.3805 15.2198C15.4666 15.242 15.5476 15.2809 15.6187 15.3344C15.6898 15.3878 15.7497 15.4548 15.795 15.5314C15.8402 15.608 15.8699 15.6928 15.8824 15.7809C15.8949 15.869 15.8899 15.9587 15.8677 16.0449C15.5608 17.2244 14.8347 18.2518 13.8253 18.9349C12.8159 19.618 11.5922 19.9101 10.3831 19.7566C9.17399 19.6031 8.06216 19.0145 7.25548 18.1008C6.4488 17.1871 6.0025 16.0109 6 14.7921C5.99984 13.8322 6.27526 12.8925 6.79355 12.0845C7.31184 11.2766 8.05119 10.6345 8.92374 10.2344C9.00457 10.1972 9.09194 10.1763 9.18086 10.1729C9.26978 10.1695 9.3585 10.1836 9.44196 10.2144C9.52541 10.2453 9.60197 10.2923 9.66726 10.3528C9.73255 10.4132 9.78528 10.486 9.82245 10.5668Z" fill="black"/>
</svg>