<?xml version='1.0' encoding='utf-8'?>
<svg xmlns="http://www.w3.org/2000/svg" width="82" height="34" viewBox="0 0 82 34" id="east_menToilet">
<path d="M81.75 33.75V0.75H50.75V9.28809H0.25V33.75H81.75Z" />
<path d="M66.375 11.375C67.5831 11.375 68.5625 10.3956 68.5625 9.1875C68.5625 7.97938 67.5831 7 66.375 7C65.1669 7 64.1875 7.97938 64.1875 9.1875C64.1875 10.3956 65.1669 11.375 66.375 11.375Z" fill="black"/>
<path d="M68.25 12H64.5C63.8376 12.002 63.2028 12.266 62.7344 12.7344C62.266 13.2028 62.002 13.8376 62 14.5V18.7C62 19.1238 62.3293 19.4844 62.7527 19.4996C62.8577 19.5034 62.9623 19.4861 63.0604 19.4486C63.1585 19.411 63.248 19.3541 63.3235 19.2813C63.3991 19.2084 63.4593 19.121 63.5003 19.0243C63.5414 18.9277 63.5625 18.8238 63.5625 18.7188V14.823C63.5615 14.7424 63.591 14.6644 63.6451 14.6046C63.6993 14.5449 63.774 14.5078 63.8543 14.5008C63.897 14.4979 63.9399 14.5039 63.9803 14.5184C64.0206 14.5328 64.0575 14.5553 64.0888 14.5847C64.12 14.614 64.1449 14.6494 64.1619 14.6887C64.1789 14.728 64.1876 14.7704 64.1875 14.8133V26.1016C64.1875 26.3398 64.2822 26.5684 64.4506 26.7369C64.6191 26.9053 64.8477 27 65.0859 27C65.3242 27 65.5527 26.9053 65.7212 26.7369C65.8897 26.5684 65.9844 26.3398 65.9844 26.1016V20.5289C65.983 20.428 66.0198 20.3304 66.0874 20.2555C66.1549 20.1806 66.2483 20.134 66.3488 20.125C66.4023 20.1214 66.4559 20.1289 66.5064 20.1469C66.5568 20.1649 66.603 20.1931 66.6421 20.2297C66.6812 20.2664 66.7124 20.3107 66.7336 20.3598C66.7548 20.409 66.7657 20.462 66.7656 20.5156V26.1016C66.7656 26.3398 66.8603 26.5684 67.0288 26.7369C67.1973 26.9053 67.4258 27 67.6641 27C67.9023 27 68.1309 26.9053 68.2994 26.7369C68.4678 26.5684 68.5625 26.3398 68.5625 26.1016V14.823C68.5615 14.7424 68.591 14.6644 68.6451 14.6046C68.6993 14.5449 68.774 14.5078 68.8543 14.5008C68.897 14.4979 68.9399 14.5039 68.9803 14.5184C69.0206 14.5328 69.0575 14.5553 69.0888 14.5847C69.12 14.614 69.1449 14.6494 69.1619 14.6887C69.1789 14.728 69.1876 14.7704 69.1875 14.8133V18.7008C69.1875 19.1246 69.5168 19.4852 69.9402 19.5004C70.0452 19.5042 70.1499 19.4868 70.2481 19.4493C70.3462 19.4117 70.4357 19.3547 70.5113 19.2818C70.5869 19.2088 70.647 19.1213 70.688 19.0246C70.729 18.9278 70.7501 18.8238 70.75 18.7188V14.5C70.748 13.8376 70.484 13.2028 70.0156 12.7344C69.5472 12.266 68.9124 12.002 68.25 12Z" fill="black"/>
</svg>