<?xml version='1.0' encoding='utf-8'?>
<svg xmlns="http://www.w3.org/2000/svg" width="26" height="26" viewBox="0 0 26 26" id="elevator">
<path d="M25.25 25.75V0.25H0.25V25.75H25.25Z" />
<path d="M19 21.0432V12.2637C19 11.3779 18.2973 10.6605 17.4012 10.6605H8.60194C7.67539 10.6605 7.00251 11.3876 7.00251 12.2634L7 12.2637V21.0432C7 21.9387 7.72556 22.6357 8.60163 22.636H17.4112C18.2867 22.636 19.0016 21.9795 19 21.0457V21.0435V21.0432ZM17.3416 20.9717H8.65838V12.339H17.3416V20.9717ZM15.1709 3.86612C15.1612 2.71789 16.8227 2.70472 16.8321 3.86612L16.8067 7.35064L17.7003 6.25602C18.3171 5.57875 19.4017 6.52286 18.7322 7.28761L16.5649 9.86753C16.2229 10.2099 15.7779 10.208 15.4377 9.86753L13.2808 7.27789C12.611 6.51251 13.706 5.55868 14.3124 6.24568L15.196 7.35064L15.1709 3.86612ZM9.14031 9.26519C9.13059 10.4134 10.7918 10.4263 10.8015 9.26519L10.7764 5.78036L11.6697 6.87498C12.2868 7.55225 13.3714 6.60814 12.702 5.84339L10.535 3.26378C10.1926 2.92138 9.74735 2.92358 9.40746 3.26378L7.25053 5.85373C6.58047 6.61849 7.67539 7.57263 8.28212 6.88532L9.1654 5.78036L9.14063 9.26519H9.14031Z" fill="black"/>
<path d="M16.9303 17.2843C16.9305 17.3232 16.923 17.3618 16.9083 17.3978C16.8936 17.4338 16.8718 17.4666 16.8444 17.4942C16.8169 17.5217 16.7843 17.5436 16.7483 17.5585C16.7124 17.5734 16.6738 17.581 16.6349 17.5809H14.6905C14.6121 17.5804 14.537 17.549 14.4816 17.4935C14.4262 17.4379 14.3949 17.3628 14.3946 17.2843V15.1713C14.394 15.1176 14.4041 15.0645 14.4243 15.0148C14.4445 14.9651 14.4744 14.92 14.5122 14.8819C14.55 14.8439 14.595 14.8138 14.6446 14.7933C14.6942 14.7729 14.7473 14.7625 14.8009 14.7627H16.5223C16.576 14.7623 16.6293 14.7726 16.6789 14.7931C16.7286 14.8135 16.7737 14.8436 16.8116 14.8816C16.8495 14.9196 16.8795 14.9648 16.8998 15.0146C16.92 15.0643 16.9302 15.1176 16.9296 15.1713V17.2843H16.9303Z" fill="black"/>
<path d="M16.455 17.5029H15.7153V20.3606C15.7153 20.8673 16.455 20.8673 16.455 20.3606V17.5029ZM15.6028 17.5029H14.8628V20.3606C14.8628 20.8635 15.6028 20.8635 15.6028 20.3606V17.5029ZM16.2252 14.0353C16.2252 14.1826 16.1667 14.3238 16.0625 14.4279C15.9584 14.5321 15.8171 14.5906 15.6699 14.5906C15.5226 14.5906 15.3813 14.5321 15.2772 14.4279C15.1731 14.3238 15.1146 14.1826 15.1146 14.0353C15.1146 13.888 15.1731 13.7468 15.2772 13.6426C15.3813 13.5385 15.5226 13.48 15.6699 13.48C15.8171 13.48 15.9584 13.5385 16.0625 13.6426C16.1667 13.7468 16.2252 13.888 16.2252 14.0353ZM14.2723 17.2837C14.2727 17.3226 14.2653 17.3613 14.2507 17.3974C14.236 17.4334 14.2142 17.4662 14.1867 17.4938C14.1593 17.5214 14.1266 17.5433 14.0906 17.5581C14.0545 17.573 14.0159 17.5805 13.977 17.5803H12.0326C11.9541 17.5799 11.8789 17.5485 11.8235 17.493C11.768 17.4374 11.7367 17.3622 11.7363 17.2837V15.1707C11.7363 14.9283 11.931 14.7621 12.1427 14.7621H13.8644C14.0964 14.7621 14.2717 14.9468 14.2717 15.1707V17.2837H14.2723Z" fill="black"/>
<path d="M13.7975 17.5029H13.0575V20.3606C13.0575 20.8673 13.7975 20.8673 13.7975 20.3606V17.5029ZM12.9455 17.5029H12.2055V20.3606C12.2055 20.8635 12.9455 20.8635 12.9455 20.3606V17.5029ZM13.5676 14.0353C13.5676 14.1826 13.5091 14.3238 13.405 14.4279C13.3008 14.5321 13.1596 14.5906 13.0123 14.5906C12.865 14.5906 12.7238 14.5321 12.6197 14.4279C12.5155 14.3238 12.457 14.1826 12.457 14.0353C12.457 13.888 12.5155 13.7468 12.6197 13.6426C12.7238 13.5385 12.865 13.48 13.0123 13.48C13.1596 13.48 13.3008 13.5385 13.405 13.6426C13.5091 13.7468 13.5676 13.888 13.5676 14.0353ZM11.6151 17.2837C11.6151 17.459 11.474 17.5803 11.3194 17.5803H9.3751C9.29664 17.5798 9.22154 17.5484 9.16612 17.4929C9.1107 17.4373 9.07943 17.3622 9.0791 17.2837V15.1707C9.0791 14.9283 9.27351 14.7621 9.48547 14.7621H11.2072C11.2609 14.7617 11.3141 14.772 11.3638 14.7925C11.4135 14.8129 11.4586 14.843 11.4965 14.881C11.5344 14.919 11.5644 14.9642 11.5846 15.014C11.6049 15.0637 11.615 15.117 11.6145 15.1707V17.2837H11.6151Z" fill="black"/>
<path d="M11.1391 17.5029H10.3991V20.3606C10.3991 20.8673 11.1391 20.8673 11.1391 20.3606V17.5029ZM10.2865 17.5029H9.54688V20.3606C9.54688 20.8635 10.2865 20.8635 10.2865 20.3606V17.5029ZM10.9093 14.0353C10.9093 14.1826 10.8508 14.3238 10.7466 14.4279C10.6425 14.5321 10.5012 14.5906 10.354 14.5906C10.2067 14.5906 10.0654 14.5321 9.9613 14.4279C9.85716 14.3238 9.79866 14.1826 9.79866 14.0353C9.79866 13.888 9.85716 13.7468 9.9613 13.6426C10.0654 13.5385 10.2067 13.48 10.354 13.48C10.5012 13.48 10.6425 13.5385 10.7466 13.6426C10.8508 13.7468 10.9093 13.888 10.9093 14.0353Z" fill="black"/>
</svg>