<?xml version='1.0' encoding='utf-8'?>
<svg xmlns="http://www.w3.org/2000/svg" width="45" height="26" viewBox="0 0 45 26" id="vending">
<path d="M44.75 0.25V25.75H0.25V0.25H44.75Z" />
<path d="M15 2V23.2812H29.625V2H15ZM15.8438 2.84375H25.6875V18.6875H15.8438V2.84375ZM26.4375 3.59375H28.7812V6.6875H26.4375V3.59375ZM27.2812 4.4375V5.84375H27.9375V4.4375H27.2812ZM17.7656 4.76562V5.84375H17.0156V6.6875H24.5156V5.84375H21.5156V4.39062L20.7656 4.67188L20.4844 5.84375H19.2656V4.76562H17.7656ZM26.8594 7.34375H28.3594V8.1875H26.8594V7.34375ZM22.6406 7.85C22.3875 7.85 22.1672 7.99062 22.0406 8.16406C21.9047 8.39375 21.8297 8.61406 21.8484 8.84375H17.0156V9.6875H24.5156V8.84375H23.4328C23.4469 8.60469 23.3578 8.32812 23.2406 8.16406C23.1141 7.99062 22.8938 7.85 22.6406 7.85ZM26.8594 8.84375H28.3594V9.6875H26.8594V8.84375ZM17.7656 10.7656V11.8438H17.0156V12.6875H24.5156V11.8438H23.3906V10.7656H22.2656V11.8438H20.7656V10.3906H20.0156V11.8438H18.5156V11.1406L17.7656 10.7656ZM18.1406 13.6437C17.8547 13.6437 17.6344 13.8266 17.5172 14.0187C17.3672 14.3047 17.3297 14.5578 17.3531 14.8438H17.0156V15.6875H24.5156V14.8438H21.5156V13.7656H20.0156V14.8438H18.9281C18.9563 14.5625 18.8953 14.2344 18.7641 14.0187C18.6469 13.8266 18.4266 13.6437 18.1406 13.6437ZM26.8594 17.0938H28.3594V17.9375H26.8594V17.0938ZM15.8438 19.5312H25.6875V22.4375H15.8438V19.5312ZM16.6875 20.375V21.5938H24.8438V20.375H16.6875Z" fill="black"/>
</svg>