<?xml version='1.0' encoding='utf-8'?>
<svg xmlns="http://www.w3.org/2000/svg" width="83" height="34" viewBox="0 0 83 34" id="west_menToilet">
<path d="M81.9263 0.25V33.25H50.9263V24.7119H0.42627V0.25H81.9263Z" />
<path d="M66.375 10.375C67.5831 10.375 68.5625 9.39562 68.5625 8.1875C68.5625 6.97938 67.5831 6 66.375 6C65.1669 6 64.1875 6.97938 64.1875 8.1875C64.1875 9.39562 65.1669 10.375 66.375 10.375Z" fill="black"/>
<path d="M68.25 11H64.5C63.8376 11.002 63.2028 11.266 62.7344 11.7344C62.266 12.2028 62.002 12.8376 62 13.5V17.7C62 18.1238 62.3293 18.4844 62.7527 18.4996C62.8577 18.5034 62.9623 18.4861 63.0604 18.4486C63.1585 18.411 63.248 18.3541 63.3235 18.2813C63.3991 18.2084 63.4593 18.121 63.5003 18.0243C63.5414 17.9277 63.5625 17.8238 63.5625 17.7188V13.823C63.5615 13.7424 63.591 13.6644 63.6451 13.6046C63.6993 13.5449 63.774 13.5078 63.8543 13.5008C63.897 13.4979 63.9399 13.5039 63.9803 13.5184C64.0206 13.5328 64.0575 13.5553 64.0888 13.5847C64.12 13.614 64.1449 13.6494 64.1619 13.6887C64.1789 13.728 64.1876 13.7704 64.1875 13.8133V25.1016C64.1875 25.3398 64.2822 25.5684 64.4506 25.7369C64.6191 25.9053 64.8477 26 65.0859 26C65.3242 26 65.5527 25.9053 65.7212 25.7369C65.8897 25.5684 65.9844 25.3398 65.9844 25.1016V19.5289C65.983 19.428 66.0198 19.3304 66.0874 19.2555C66.1549 19.1806 66.2483 19.134 66.3488 19.125C66.4023 19.1214 66.4559 19.1289 66.5064 19.1469C66.5568 19.1649 66.603 19.1931 66.6421 19.2297C66.6812 19.2664 66.7124 19.3107 66.7336 19.3598C66.7548 19.409 66.7657 19.462 66.7656 19.5156V25.1016C66.7656 25.3398 66.8603 25.5684 67.0288 25.7369C67.1973 25.9053 67.4258 26 67.6641 26C67.9023 26 68.1309 25.9053 68.2994 25.7369C68.4678 25.5684 68.5625 25.3398 68.5625 25.1016V13.823C68.5615 13.7424 68.591 13.6644 68.6451 13.6046C68.6993 13.5449 68.774 13.5078 68.8543 13.5008C68.897 13.4979 68.9399 13.5039 68.9803 13.5184C69.0206 13.5328 69.0575 13.5553 69.0888 13.5847C69.12 13.614 69.1449 13.6494 69.1619 13.6887C69.1789 13.728 69.1876 13.7704 69.1875 13.8133V17.7008C69.1875 18.1246 69.5168 18.4852 69.9402 18.5004C70.0452 18.5042 70.1499 18.4868 70.2481 18.4493C70.3462 18.4117 70.4357 18.3547 70.5113 18.2818C70.5869 18.2088 70.647 18.1213 70.688 18.0246C70.729 17.9278 70.7501 17.8238 70.75 17.7188V13.5C70.748 12.8376 70.484 12.2028 70.0156 11.7344C69.5472 11.266 68.9124 11.002 68.25 11Z" fill="black"/>
</svg>