<?xml version='1.0' encoding='utf-8'?>
<svg xmlns="http://www.w3.org/2000/svg" width="24" height="25" viewBox="0 0 24 25" id="west_multipurposeToilet">
<path d="M1.17627 1H23.6763V24H1.17627V1Z" />
<path d="M9.3311 5.61998C9.54978 5.40179 9.81346 5.23397 10.1037 5.12822C10.394 5.02248 10.7038 4.98137 11.0116 5.00776C11.3194 5.03415 11.6177 5.1274 11.8857 5.28101C12.1537 5.43462 12.385 5.64487 12.5634 5.8971C12.7417 6.14933 12.8629 6.43745 12.9183 6.74135C12.9738 7.04524 12.9623 7.35758 12.8846 7.65656C12.8069 7.95554 12.6648 8.23396 12.4684 8.47237C12.2719 8.71078 12.0258 8.90343 11.7472 9.03688L12.3145 14.1437C12.3208 14.2012 12.349 14.2541 12.3932 14.2914C12.4374 14.3287 12.4943 14.3476 12.552 14.3442L17.107 14.0841C17.3158 14.0722 17.5249 14.1018 17.7221 14.1713C17.9194 14.2408 18.1009 14.3487 18.2562 14.4888C18.4114 14.6289 18.5373 14.7985 18.6266 14.9876C18.7158 15.1768 18.7667 15.3818 18.7761 15.5907L18.8755 17.7891C18.878 17.8473 18.903 17.9022 18.945 17.9424C18.9871 17.9826 19.0431 18.0051 19.1013 18.005H19.3226C19.5022 18.005 19.6745 18.0764 19.8016 18.2034C19.9286 18.3305 20 18.5028 20 18.6824C20 18.8621 19.9286 19.0344 19.8016 19.1614C19.6745 19.2885 19.5022 19.3598 19.3226 19.3598H19.1022C18.6954 19.36 18.3041 19.2034 18.0099 18.9224C17.7156 18.6415 17.541 18.2579 17.5225 17.8515L17.4231 15.6521C17.4218 15.6222 17.4146 15.5929 17.4019 15.5658C17.3892 15.5387 17.3712 15.5144 17.349 15.4943C17.3269 15.4742 17.3009 15.4587 17.2727 15.4488C17.2444 15.4388 17.2145 15.4345 17.1846 15.4362L12.6288 15.6973C12.2247 15.7203 11.8273 15.5875 11.5182 15.3262C11.2092 15.0649 11.0122 14.695 10.9677 14.2928L10.4014 9.19856C10.0264 9.12089 9.67939 8.94321 9.39715 8.68435C9.11491 8.42549 8.90797 8.09509 8.79826 7.72817C8.68854 7.36125 8.68014 6.97148 8.77395 6.60017C8.86776 6.22887 9.06027 5.89076 9.3311 5.61998ZM13 11.4566C13 11.277 13.0714 11.1047 13.1984 10.9776C13.3255 10.8506 13.4978 10.7792 13.6774 10.7792H16.3871C16.5668 10.7792 16.7391 10.8506 16.8661 10.9776C16.9931 11.1047 17.0645 11.277 17.0645 11.4566C17.0645 11.6363 16.9931 11.8086 16.8661 11.9356C16.7391 12.0627 16.5668 12.134 16.3871 12.134H13.6774C13.4978 12.134 13.3255 12.0627 13.1984 11.9356C13.0714 11.8086 13 11.6363 13 11.4566ZM9.82245 11.5668C9.8596 11.6478 9.88042 11.7352 9.88372 11.8242C9.88703 11.9132 9.87275 12.002 9.84171 12.0855C9.81067 12.1689 9.76347 12.2455 9.70282 12.3107C9.64218 12.3759 9.56926 12.4285 9.48826 12.4655C8.92719 12.723 8.44042 13.1183 8.07327 13.6146C7.70612 14.1109 7.47054 14.692 7.38847 15.3039C7.3064 15.9157 7.3805 16.5384 7.60389 17.1139C7.82727 17.6894 8.19266 18.199 8.66604 18.5952C9.13941 18.9915 9.70536 19.2615 10.3112 19.3801C10.917 19.4987 11.543 19.4621 12.1309 19.2736C12.7187 19.0851 13.2493 18.751 13.6732 18.3022C14.0972 17.8534 14.4006 17.3047 14.5554 16.7071C14.5775 16.6209 14.6165 16.5399 14.6699 16.4688C14.7234 16.3977 14.7904 16.3378 14.867 16.2925C14.9436 16.2473 15.0284 16.2176 15.1165 16.2051C15.2046 16.1926 15.2943 16.1976 15.3805 16.2198C15.4666 16.242 15.5476 16.2809 15.6187 16.3344C15.6898 16.3878 15.7497 16.4548 15.795 16.5314C15.8402 16.608 15.8699 16.6928 15.8824 16.7809C15.8949 16.869 15.8899 16.9587 15.8677 17.0449C15.5608 18.2244 14.8347 19.2518 13.8253 19.9349C12.8159 20.618 11.5922 20.9101 10.3831 20.7566C9.17399 20.6031 8.06216 20.0145 7.25548 19.1008C6.4488 18.1871 6.0025 17.0109 6 15.7921C5.99984 14.8322 6.27526 13.8925 6.79355 13.0845C7.31184 12.2766 8.05119 11.6345 8.92374 11.2344C9.00457 11.1972 9.09194 11.1763 9.18086 11.1729C9.26978 11.1695 9.3585 11.1836 9.44196 11.2144C9.52541 11.2453 9.60197 11.2923 9.66726 11.3528C9.73255 11.4132 9.78528 11.486 9.82245 11.5668Z" fill="black"/>
</svg>